<?xml version="1.0" encoding="utf-8"?>
<!-- Generator: Adobe Illustrator 22.1.0, SVG Export Plug-In . SVG Version: 6.00 Build 0)  -->
<svg version="1.1" id="Layer_1" xmlns="http://www.w3.org/2000/svg" xmlns:xlink="http://www.w3.org/1999/xlink" x="0px" y="0px"
	 viewBox="0 0 35.5 32" style="enable-background:new 0 0 35.5 32;" xml:space="preserve">
<style type="text/css">
	.st0{fill:#FFFFFF;}
</style>
<title>logo</title>
<desc>Created with Sketch.</desc>
<g id="For-Agency">
	<g id="Desktop-HD" transform="translate(-61.000000, -37.000000)">
		<g id="logo" transform="translate(61.000000, 37.000000)">
			<g id="Logo">
				<rect id="Rectangle-3" x="1.8" class="st0" width="32" height="32"/>
				<g id="crown.53" transform="translate(0.000000, 3.000000)">
					<path id="Shape" d="M15.5,2c0-1.1,0.9-1.9,1.9-1.9c1.1,0,1.9,0.9,1.9,1.9S18.5,4,17.4,4c-0.5,0-1-0.2-1.4-0.6S15.5,2.6,15.5,2z
						 M9.5,10c-4.3,0-7.8,3.5-7.8,7.8v7.8h6.3V16c0-2.2,0.7-4.3,2.1-6C10,10,9.7,10,9.5,10z M25,10c1.4,1.7,2.1,3.8,2.1,6v9.5h5.6
						v-7.8c0-2.1-0.8-4-2.3-5.5S27.1,10,25,10z M17.4,6.5c-2.9,0-5.6,1.3-7.3,3.6c4,0.4,7,3.7,7,7.7c0-4.2,3.4-7.7,7.6-7.8
						C23,7.8,20.3,6.5,17.4,6.5z"/>
				</g>
			</g>
		</g>
	</g>
</g>
</svg>
